<?xml version="1.0" encoding="UTF-8" standalone="no"?>
<!-- Created with Inkscape (http://www.inkscape.org/) -->

<svg
   version="1.1"
   id="svg48"
   width="45"
   height="70"
   viewBox="0 0 45 70"
   sodipodi:docname="barley-separator-2.svg"
   inkscape:version="1.4.2 (f4327f4, 2025-05-13)"
   xmlns:inkscape="http://www.inkscape.org/namespaces/inkscape"
   xmlns:sodipodi="http://sodipodi.sourceforge.net/DTD/sodipodi-0.dtd"
   xmlns="http://www.w3.org/2000/svg"
   xmlns:svg="http://www.w3.org/2000/svg">
  <defs
     id="defs52" />
  <sodipodi:namedview
     id="namedview50"
     pagecolor="#ffffff"
     bordercolor="#000000"
     borderopacity="0.25"
     inkscape:showpageshadow="2"
     inkscape:pageopacity="0.0"
     inkscape:pagecheckerboard="0"
     inkscape:deskcolor="#d1d1d1"
     showgrid="false"
     inkscape:zoom="5.6568542"
     inkscape:cx="65.84932"
     inkscape:cy="30.49398"
     inkscape:window-width="1920"
     inkscape:window-height="1051"
     inkscape:window-x="-9"
     inkscape:window-y="-9"
     inkscape:window-maximized="1"
     inkscape:current-layer="g58">
    <inkscape:page
       x="0"
       y="0"
       id="page54"
       width="45"
       height="70"
       margin="0"
       bleed="0" />
    <inkscape:grid
       id="grid1"
       units="px"
       originx="0"
       originy="0"
       spacingx="1"
       spacingy="1"
       empcolor="#0099e5"
       empopacity="0.30196078"
       color="#0099e5"
       opacity="0.14901961"
       empspacing="5"
       enabled="true"
       visible="false" />
  </sodipodi:namedview>
  <g
     id="g56"
     inkscape:groupmode="layer"
     inkscape:label="Page 1"
     transform="matrix(1.3333333,0,0,-1.3333333,0,2829.3333)">
    <g
       id="g58"
       transform="matrix(0.12182186,0,0,0.12182186,-234.85049,-234.56139)">
      <path
         d="m 2049.8103,19156.673 c -3.0014,-2.608 -6.0095,-5.206 -8.9471,-7.877 -2.7006,-2.457 -5.3378,-4.974 -7.8438,-7.633 -0.01,-0.01 -0.017,-0.02 -0.025,-0.03 -3.1399,-3.334 -5.8114,-6.981 -8.1315,-10.906 -1.3953,-2.367 -2.3586,-5.028 -3.7466,-7.396 1.2584,-1.623 2.4123,-3.297 3.4777,-5.012 2.706,-4.362 4.8439,-9.002 6.6513,-13.868 0.2552,-0.687 0.5013,-1.381 0.7436,-2.076 14.5415,13.31 28.1591,36.3 17.826,54.799 z m -60.1021,-46.454 c 9.4671,-12.495 21.786,-22.251 38.2103,-25.06 -0.3063,0.564 -0.4728,1.254 -0.426,2.085 0.1202,2.392 -0.054,4.788 -0.4379,7.166 -0.9506,5.919 -3.3498,11.707 -6.5886,16.997 -3.2763,5.347 -7.3977,10.179 -11.7577,14.081 -5.6838,5.089 -12.3231,8.912 -19.4622,11.44 -2.9202,1.035 -5.9278,1.846 -8.9868,2.441 -2.3845,0.462 -4.8008,0.795 -7.2338,0.985 0.9396,-2.237 1.9278,-4.48 2.9659,-6.718 3.7942,-8.175 8.2868,-16.245 13.7217,-23.416 z m 50.437,64.678 c 0.3682,4.581 0.1306,9.189 -0.3849,13.736 -0.1,0.872 -0.2034,1.77 -0.3114,2.676 -0.4408,3.723 -0.9731,7.693 -1.7462,11.611 -0.6734,3.423 -1.5349,6.801 -2.6805,9.936 -2.2667,-2.416 -4.4259,-4.857 -6.451,-7.351 -3.8746,-4.777 -7.2434,-9.77 -9.9047,-15.202 -2.4085,-4.912 -4.2391,-10.182 -5.3182,-15.993 1.8782,-1.618 3.7345,-3.338 5.4869,-5.149 4.4827,-4.635 8.2717,-9.857 9.9531,-15.401 0.3328,-1.108 0.5906,-2.227 0.7462,-3.36 0.1364,-0.975 -1.1359,-1.251 -1.7584,-0.781 -4.9527,3.747 -8.8318,9.352 -13.4908,13.565 -1.5956,1.447 -3.2252,2.835 -4.8754,4.192 -3.6086,2.97 -7.3603,5.728 -11.4307,8.161 -9.7043,5.805 -20.1332,10.408 -30.7613,14.417 -0.7792,0.292 -1.5597,0.58 -2.3411,0.867 0.2559,-0.736 0.5356,-1.462 0.8048,-2.192 2.64,-7.073 5.9299,-13.854 9.6326,-20.538 2.4882,-4.488 5.1911,-8.857 8.1065,-13.085 2.4606,-3.572 6.4164,-7.185 7.6931,-11.407 7.9571,-2.67 15.3933,-6.764 21.8688,-12.253 1.5883,-1.345 3.0525,-2.743 4.4177,-4.18 0.05,-0.06 0.119,-0.11 0.1666,-0.167 0.016,0.09 0.043,0.176 0.059,0.261 0.6245,3.037 1.981,6.156 3.587,9.072 0.048,0.08 0.09,0.156 0.1353,0.235 0.9837,1.764 2.0454,3.447 3.0789,4.989 0.713,1.06 1.4101,2.06 2.0539,2.964 3.6406,5.105 7.9508,9.598 12.5898,13.77 -0.8284,0.485 -1.433,1.324 -1.4262,2.379 0.03,4.786 2.1145,9.392 2.5023,14.229 z m -34.905,83.618 c -2.6607,7.132 -3.1831,14.786 -6.2008,21.922 -2.3649,5.593 -5.124,10.848 -8.5072,15.795 -0.6595,-1.248 -1.2908,-2.507 -1.8836,-3.779 -5.9149,-12.695 -8.5797,-26.467 -9.9508,-40.443 -0.01,-0.139 -0.066,-0.261 -0.1297,-0.372 4.1285,-2.492 8.5603,-5.6 11.8189,-9.323 0.7911,-0.902 1.5161,-1.841 2.1484,-2.814 0.7956,1.435 1.6143,2.858 2.4673,4.263 2.9247,4.832 6.1771,9.479 9.67,13.939 0.1975,0.252 0.4018,0.5 0.6014,0.752 0,0.02 -0.026,0.03 -0.03,0.06 z m -22.785,41.669 c -1.0804,0.825 -1.4257,1.689 -2.1844,3.373 -1.7674,3.916 -3.8789,7.384 -6.3675,10.884 -2.7543,3.869 -5.5314,7.81 -8.0409,11.889 -1.3232,-3.17 -2.3948,-6.43 -3.1753,-9.787 -0.7897,-3.395 -0.8743,-6.828 -1.6464,-10.125 3.358,-1.718 6.5246,-3.796 9.4498,-6.251 2.9079,-2.44 6.8291,-6.392 8.8388,-10.587 1.1171,3.014 2.4255,5.973 3.9007,8.858 0.1631,0.321 0.3363,0.636 0.5029,0.955 -0.5232,0.274 -0.936,0.53 -1.2777,0.791 z m -21.8423,-40.02 c 5.1295,-1.914 10.1531,-4.078 14.9062,-6.751 0.4051,-0.227 0.8202,-0.466 1.2409,-0.708 -2.4813,9.522 -2.219,19.221 0.041,28.581 -4.6459,1.974 -8.1604,8.388 -11.9116,11.785 -2.7959,2.532 -5.9,4.6 -9.2324,6.253 -1.0564,0.524 -2.1277,1.021 -3.23,1.458 -0.1559,-1.987 -0.2451,-3.979 -0.2752,-5.974 -0.068,-4.53 0.1638,-9.067 0.6437,-13.549 0.3612,-3.378 1.0872,-6.706 1.8002,-10.036 0.6751,-3.151 1.3371,-6.302 1.6654,-9.493 1.4582,-0.503 2.9085,-1.026 4.3523,-1.566 z m 20.8812,-66.449 c -1.5421,4.715 -1.7124,9.489 -1.0388,14.244 0.3858,2.744 1.0544,5.48 1.8979,8.192 1.4418,4.645 3.3915,9.223 5.346,13.651 0.2426,0.546 0.5123,1.08 0.7623,1.623 -3.1599,2.459 -5.4693,5.891 -8.5353,8.509 -3.1204,2.667 -6.5891,4.873 -10.2136,6.826 -5.7232,3.076 -11.7816,5.433 -17.9332,7.544 -0.1445,0.05 -0.2891,0.1 -0.4306,0.146 0.01,-0.106 0,-0.214 0.011,-0.32 0.264,-10.605 2.1607,-20.971 6.0572,-30.936 2.2575,-5.77 5.1567,-11.317 8.55,-16.509 2.1402,-3.274 4.7686,-6.39 6.8837,-9.741 2.9166,-0.994 5.8012,-2.067 8.6444,-3.228 z m 28.2782,-6.29 c 0.2189,1.128 0.5035,2.244 0.8445,3.35 2.1721,7.015 6.6475,13.563 11.7033,19.529 -0.4019,0.434 -0.6644,1.041 -0.6665,1.855 0,8.8 -0.5034,17.291 -2.738,25.839 -1.0203,3.9 -2.4283,7.59 -3.9583,11.232 -0.7639,1.818 -1.5549,3.628 -2.3512,5.439 -0.4365,-0.542 -0.8749,-1.092 -1.3089,-1.643 -1.856,-2.356 -3.6769,-4.81 -5.441,-7.346 -0.5438,-0.783 -1.0846,-1.571 -1.6177,-2.37 -7.4994,-11.228 -13.7492,-23.899 -16.6729,-36.69 -1.1239,-4.921 -1.7609,-9.859 -1.7792,-14.74 1.2902,-0.579 2.5659,-1.188 3.8342,-1.814 5.0338,-2.479 9.8961,-5.31 14.5228,-8.602 1.7295,-1.234 3.5855,-2.606 5.4784,-4.094 -0.5927,3.439 -0.4882,6.792 0.1505,10.055 z m 132.3566,-100.54 c -3.6859,-0.175 -7.3707,-0.338 -11.053,-0.573 -3.7538,-0.238 -7.5052,-0.553 -11.2461,-1.061 -0.1185,-0.02 -0.2379,-0.04 -0.3554,-0.06 -4.3745,-0.624 -8.6525,-1.766 -12.7937,-3.306 -2.8308,-1.053 -5.5365,-2.734 -8.3854,-3.795 -0.076,-2.079 -0.2617,-4.128 -0.5461,-6.153 -0.7118,-5.072 -2.0282,-10.011 -3.7383,-14.927 -0.237,-0.681 -0.485,-1.363 -0.7364,-2.042 19.2761,1.259 45.271,11.009 48.8543,31.914 z m 12.4883,31.069 c 0.43,0.671 0.8683,1.354 1.3089,2.047 2.1794,3.419 4.4435,7.087 6.4591,10.87 1.6253,3.048 3.089,6.168 4.2058,9.291 -3.6266,-0.537 -7.1809,-1.172 -10.6506,-1.974 -6.0783,-1.41 -11.9072,-3.32 -17.4458,-6.073 -4.5627,-2.264 -8.9283,-5.099 -13.0786,-8.677 -0.027,-0.02 -0.045,-0.03 -0.062,-0.05 0,-0.01 0,-0.01 0,-0.01 0.3905,-2.368 0.7055,-4.771 0.8807,-7.18 0.4734,-6.523 -0.028,-13.018 -2.3051,-18.604 -0.4078,-0.998 -0.853,-1.979 -1.3795,-2.913 -0.4035,-0.716 -1.7276,-0.715 -1.9049,0.182 -1.2338,6.244 -0.7683,12.881 -1.6912,19.233 -0.3136,2.141 -0.684,4.258 -1.0926,6.361 -1.0542,5.29 -2.4682,10.468 -4.3802,15.569 -3.6978,9.863 -8.5118,19.279 -13.787,28.413 -0.369,0.639 -0.7463,1.273 -1.1201,1.91 -0.2548,-0.689 -0.5003,-1.381 -0.7413,-2.075 -2.579,-7.42 -4.3992,-15.043 -5.8608,-22.805 -1.025,-5.443 -1.7655,-10.922 -2.1818,-16.434 -0.3026,-4.005 0.1799,-8.176 -1.23,-11.922 4.3418,-6.911 7.4134,-14.596 8.8729,-22.712 0.3949,-2.207 0.6611,-4.369 0.795,-6.496 0.01,-0.109 0.014,-0.214 0.022,-0.324 0.096,0.08 0.1985,0.158 0.2963,0.236 2.4387,1.994 5.4978,3.587 8.5905,4.87 0.1162,0.05 0.2315,0.1 0.3479,0.142 1.7024,0.694 3.3985,1.296 4.9978,1.818 1.1265,0.371 2.2087,0.702 3.1993,0.998 6.2419,1.867 12.6496,2.79 19.1042,3.213 -0.295,0.771 -0.2828,1.635 0.2392,2.345 2.6363,3.595 6.7866,5.589 9.997,8.724 3.6988,3.614 6.8254,7.707 9.6049,12.031 z m 27.4098,97.034 c 1.8075,6.025 3.1429,12.013 3.7168,18.177 -1.3577,-0.59 -2.7007,-1.202 -4.0172,-1.858 -12.644,-6.287 -23.4665,-15.516 -33.4241,-25.584 -0.088,-0.08 -0.1706,-0.142 -0.2597,-0.186 1.5875,-4.531 2.9657,-9.7 3.0761,-14.613 0.028,-1.22 -0.031,-2.423 -0.1768,-3.598 1.5368,0.635 3.0824,1.247 4.6412,1.826 5.3107,1.971 10.7399,3.614 16.2486,4.944 0.3596,0.09 0.7222,0.17 1.0833,0.255 2.5072,7.105 6.9095,13.3 9.1118,20.637 z m 0.4893,24.928 c -0.1866,0.506 -0.2965,0.957 -0.3725,1.393 -0.3631,2.008 0.2874,3.451 0.9066,5.908 0.9966,3.96 1.3708,7.905 1.6656,11.954 0.3123,4.273 0.7112,8.631 1.3317,12.935 -3.2764,-1.798 -6.4015,-3.882 -9.2913,-6.214 -2.5741,-2.078 -4.685,-4.454 -7.175,-6.412 1.4948,-3.461 2.5903,-7.091 3.244,-10.865 0.6498,-3.794 1.1619,-9.259 0.015,-13.775 2.8184,1.693 5.7557,3.211 8.7703,4.577 0.3145,0.141 0.628,0.283 0.9453,0.42 0,0.03 -0.029,0.05 -0.043,0.08 z m -42.8978,-16.439 c 2.6613,-4.602 5.0954,-9.327 7.0577,-14.28 0.2138,-0.538 0.4289,-1.094 0.6411,-1.659 4.1758,9.037 10.6027,16.475 18.3458,22.415 -1.9563,4.707 -0.8697,10.794 -1.5263,15.866 -0.5136,3.961 -1.6235,7.712 -3.2117,11.27 -0.4843,1.085 -1.0014,2.155 -1.5759,3.203 -1.3373,-1.404 -2.6307,-2.848 -3.8853,-4.325 -3.0803,-3.625 -5.917,-7.447 -8.4826,-11.451 -1.7446,-2.721 -3.2373,-5.591 -4.7338,-8.457 -1.5463,-2.965 -3.098,-5.923 -4.9332,-8.711 0.7849,-1.279 1.5525,-2.571 2.3042,-3.871 z m -26.3667,-65.106 c 1.8344,4.608 4.7234,8.409 8.2346,11.683 2.0482,1.909 4.2993,3.645 6.6806,5.253 3.4417,2.325 7.135,4.397 10.8227,6.383 1.2333,0.664 2.4863,1.287 3.7394,1.91 -0.5461,3.275 -0.4287,6.554 -0.8161,9.855 -0.015,0.154 -0.029,0.308 -0.054,0.46 -0.1075,0.796 -0.245,1.589 -0.3923,2.38 -0.6849,3.539 -1.8048,7.006 -3.1125,10.349 -2.4749,6.329 -5.8754,12.26 -9.4806,18.034 -6.7861,-8.651 -12.1021,-18.257 -15.4394,-28.737 -1.8432,-5.784 -3.1671,-11.749 -3.8565,-17.761 -0.4459,-3.889 -0.4042,-7.989 -0.9212,-11.946 1.6103,-2.579 3.1506,-5.195 4.5969,-7.863 z m 8.7926,-20.895 c 0.8426,-2.863 1.6806,-6.025 2.3975,-9.334 1.7189,3.039 3.9261,5.578 6.4802,7.723 0.8831,0.745 1.8077,1.44 2.7708,2.09 6.2055,4.193 13.9302,6.558 21.7159,8.096 -0.047,0.671 0.1523,1.391 0.6946,2.063 5.3637,6.648 10.2087,13.316 13.9005,21.021 1.8438,3.85 3.1821,7.764 4.3767,11.722 0.6005,1.987 1.1648,3.985 1.7379,5.991 -0.6908,-0.157 -1.3843,-0.316 -2.0796,-0.483 -2.8116,-0.675 -5.655,-1.442 -8.5053,-2.292 -1.0912,-0.325 -2.1811,-0.659 -3.2723,-1.009 -12.7681,-4.115 -25.4653,-10.046 -35.7926,-18.108 -4.1247,-3.219 -7.8691,-6.775 -11.089,-10.696 0.5909,-1.189 1.1689,-2.385 1.7187,-3.595 1.9379,-4.266 3.6121,-8.655 4.946,-13.189 z m -42.4482,-93.244 c 0.1059,0.772 0.4716,1.579 1.1892,2.377 1.3996,1.552 2.6282,3.254 3.7257,5.054 2.9062,4.771 4.7958,10.291 5.8052,16.007 1.3992,7.923 1.1377,16.211 -0.355,23.349 -1.3227,6.331 -3.721,12.284 -6.9842,17.726 -1.6085,2.681 -3.4211,5.239 -5.4309,7.65 -1.5456,1.854 -3.2033,3.625 -4.9645,5.302 -0.7414,-2.459 -1.4467,-4.961 -2.105,-7.49 -2.216,-8.507 -3.869,-17.336 -4.3104,-26.058 -0.8105,-15.884 2.3782,-31.4 13.4299,-43.917 z m -139.3631,191.722 c -4.0805,9.875 -5.7501,19.363 -4.932,29.978 0.075,0.962 1.3297,1.199 1.6957,0.282 2.0498,-5.12 4.0193,-10.282 6.019,-15.43 -0.2301,3.116 -0.3067,6.248 -0.2106,9.383 0.08,2.537 2.5471,5.134 5.3319,4.247 0.9557,-0.306 1.9106,-0.614 2.8636,-0.922 -1.9745,3.055 -3.4513,6.493 -4.5494,10.133 -0.3037,0.07 -0.5818,0.255 -0.7621,0.589 -3.599,6.688 -4.5167,15.448 -5.6055,22.896 -1.3077,8.955 -1.4114,18.165 -1.254,27.218 0.023,1.319 1.9886,1.385 2.0792,0.07 0.5618,-8.19 1.6511,-16.246 2.9964,-24.332 0.1351,2.589 0.3459,5.098 0.6176,7.449 0.262,2.265 3.2372,3.668 5.2545,3.152 1.5064,-0.386 2.9762,-0.848 4.428,-1.349 -0.7702,9.135 4.1611,20.373 7.9739,27.288 1.2184,2.207 4.3291,2.671 6.1492,0.987 5.3048,-4.904 9.4382,-11.319 12.0714,-17.99 1.3719,-3.478 2.4524,-7.059 3.7543,-10.561 0.7468,-2.008 1.6702,-3.684 1.9315,-5.474 0.2529,0.424 0.4959,0.853 0.7557,1.272 0.9871,1.592 2.5621,2.121 4.039,1.792 -1.8128,3.657 -3.5899,7.167 -4.1859,11.332 -0.2858,1.969 2.3532,2.627 3.6156,1.609 7.2995,-5.878 9.5543,-16.008 10.608,-25.451 2.0974,-3.669 3.86,-7.518 5.1252,-11.536 1.7829,-5.672 3.6723,-12.674 3.4305,-19.058 0.4501,0.521 0.8872,1.053 1.3431,1.569 1.7601,1.988 4.4415,1.493 5.9867,-0.144 -1.39,7.355 -2.2289,14.792 -2.0283,22.006 0.057,1.957 3.0454,3.28 4.0647,1.228 6.5784,-13.25 7.3188,-29.773 4.8036,-44.294 0.5064,-2.125 0.9908,-4.246 1.465,-6.341 1.5684,-6.94 2.7365,-14.15 2.5466,-21.317 1.9672,2.079 3.9294,4.075 5.8011,5.974 1.0373,1.051 2.7337,1.424 4.1341,0.997 -1.5154,6.182 -3.8342,12.27 -3.7308,18.696 0.023,1.482 2.0804,2.73 3.2245,1.433 7.8858,-8.949 8.2596,-21.953 6.9463,-33.861 1.6426,-6.456 2.5144,-13.253 3.2728,-19.52 0.8914,-7.348 1.7735,-17.942 -1.2829,-25.782 0.8353,0.67 1.671,1.338 2.5129,1.998 1.7315,1.359 4.581,0.428 5.6243,-1.256 0.7372,-1.191 1.404,-2.404 2.0191,-3.636 -0.034,0.588 -0.085,1.172 -0.1128,1.762 -0.2952,6.215 -1.44,13.374 0.9654,19.252 0.9344,2.285 4.0199,1.312 4.7607,-0.45 2.4041,-5.712 1.074,-13.638 0.7934,-19.779 -0.2647,-5.794 -0.8997,-11.532 -1.8595,-17.254 0.3655,-5.007 -0.1057,-10.12 -1.4454,-15.198 -3.5361,-13.405 -12.0589,-24.132 -20.1565,-35.142 -1.184,-1.608 -2.6331,-2.347 -4.0661,-2.481 0.3089,-1.103 0.613,-2.208 0.9112,-3.327 0.088,-0.358 0.1418,-0.694 0.1632,-1.016 6.4527,-17.065 10.7238,-35.013 17.7603,-51.911 3.4909,-8.386 7.4127,-16.585 11.6811,-24.602 3.937,10.549 8.6774,20.945 14.9038,30.192 -0.2813,0.346 -0.5097,0.727 -0.6673,1.135 -19.9696,15.758 -21.9336,40.682 -17.7268,64.276 -0.097,7.664 0.397,15.255 1.5247,22.921 1.2435,8.465 2.6722,19.56 8.3815,26.389 1.1287,1.353 2.9997,0.235 3.1812,-1.179 0.9609,-7.465 -2.042,-16.244 -4.13,-23.852 0.7621,-0.03 1.5415,-0.284 2.2302,-0.832 3.0958,-2.464 5.9645,-5.184 8.5719,-8.119 0.1081,1.275 0.2404,2.552 0.3361,3.81 0.4125,5.453 1.0828,10.903 2.023,16.299 0.2352,1.335 0.4968,2.664 0.7738,3.992 -0.2775,-0.145 -0.6785,-0.03 -0.6728,0.361 0.1687,8.932 0.9099,17.857 2.1578,26.723 1.0287,7.317 0.5554,16.797 6.7596,21.97 0.9536,0.798 3.0472,0.526 2.8839,-1.067 -0.8291,-8.094 -2.3653,-16.401 -4.3232,-24.617 0.761,2.16 1.5367,4.312 2.3297,6.456 1.1732,3.176 5.1343,4.021 7.1844,1.17 0.3142,-0.437 0.6228,-0.876 0.9334,-1.316 0.2407,7.967 2.3644,16.381 4.2439,22.752 1.6629,5.639 3.864,11.099 6.5128,16.337 -0.1264,0.219 -0.1874,0.492 -0.14,0.809 1.628,12.509 8.2132,26.648 15.9089,36.774 0.9717,1.278 3.0118,-0.01 2.6391,-1.404 -1.6224,-6.08 -4.443,-11.945 -6.9175,-17.74 -0.2308,-0.543 -0.4608,-1.078 -0.6915,-1.616 0.8147,1.019 1.6293,2.039 2.4863,3.028 1.8393,2.119 5.3324,1.545 6.7452,-0.63 0.4634,-0.716 0.9243,-1.435 1.3861,-2.154 0.5868,4.822 2.2687,9.662 4.6108,14.319 -0.6519,0.421 -1.0319,1.267 -0.6305,2.267 5.1266,12.785 12.3326,26.08 21.3806,36.652 1.7023,1.988 4.4923,-0.375 3.504,-2.501 -2.1345,-4.595 -4.5829,-9.171 -7.2217,-13.677 0.3375,0.339 0.6731,0.671 1.0068,0.996 2.0959,2.047 5.166,1.611 6.8124,-0.632 0.8211,-1.12 1.5772,-2.272 2.3008,-3.441 5.303,7.713 16.5745,13.484 23.9458,16.543 2.5857,1.071 4.7746,-1.326 5.0515,-3.561 0.9422,-7.57 -0.2416,-15.497 -2.7697,-22.705 -1.2173,-3.469 -2.5603,-6.887 -3.7671,-10.358 -0.6182,-1.777 -0.9789,-3.119 -1.682,-4.278 0.6002,0.23 1.1966,0.464 1.8005,0.683 1.3096,0.466 2.7151,0.02 3.6791,-0.874 0.74,3.004 1.5971,5.961 2.9913,8.663 1.0394,2.016 3.7806,0.997 4.0038,-0.929 0.7312,-6.324 -2.0296,-13.186 -4.1941,-19.095 -0.8924,-2.439 -1.9803,-4.715 -3.1999,-6.909 -0.6845,-3.337 -1.6185,-6.621 -2.8828,-9.791 -2.336,-5.856 -5.3571,-12.649 -9.7932,-17.656 0.477,0.09 0.9501,0.195 1.4274,0.281 1.2289,0.219 2.5667,-0.05 3.5966,-0.681 2.3845,4.69 4.9333,9.315 8.7149,13.031 1.1154,1.095 2.7827,0.08 2.5405,-1.352 -1.3154,-7.764 -6.1416,-14.53 -10.2003,-21.181 -1.2637,-2.07 -2.5572,-4.05 -3.8779,-5.986 -2.0049,-4.562 -4.214,-9.058 -6.3936,-13.447 -3.2968,-6.639 -7.1002,-13.323 -11.9985,-19.021 2.9808,0.428 5.8949,0.786 8.6585,1.129 2.6167,0.324 4.2942,-2.465 3.8285,-4.686 -0.2014,-0.96 -0.4527,-1.924 -0.7251,-2.889 2.6575,4.648 5.3289,9.387 8.9169,13.009 1.3765,1.394 3.3922,0.07 3.1267,-1.665 -1.2114,-7.902 -7.6401,-16.091 -12.3873,-22.39 -3.3861,-4.495 -6.9279,-8.512 -10.9956,-12.068 -1.0967,-1.709 -2.1978,-3.373 -3.2712,-4.97 -3.7116,-5.52 -9.4404,-13.679 -16.156,-17.673 0.7963,0 1.5932,0.01 2.3897,0.01 2.8805,-0.01 4.4155,-2.325 4.0529,-4.961 -0.2797,-2.042 -0.7124,-4.033 -1.2645,-5.975 4.5109,5.778 8.3633,12.88 13.8771,17.761 1.1716,1.036 3.3263,0.195 2.8343,-1.509 -2.0533,-7.112 -7.7024,-13.509 -12.3831,-19.2 -4.0217,-4.889 -8.3239,-9.362 -13.0706,-13.45 -2.3889,-2.853 -5.1404,-5.459 -8.206,-7.775 -11.4107,-8.618 -25.2755,-11.807 -38.7846,-15.501 -1.7843,-0.488 -3.2505,-0.187 -4.3546,0.551 -0.5036,-1.14 -1.0164,-2.285 -1.5426,-3.436 -0.1006,-0.225 -0.2176,-0.423 -0.3423,-0.612 -4.6831,-13.66 -10.7489,-26.909 -15.7429,-40.514 4.5393,-7.213 9.6328,-14.446 11.9085,-22.487 0.8115,-2.864 -2.5178,-4.459 -4.6683,-2.868 -4.5735,3.385 -8.1854,8.091 -11.3231,13.136 -3.0192,-10.072 -5.5253,-20.285 -7.4868,-30.598 -2.0068,-10.56 -2.0922,-22.225 -6.4404,-32.163 -0.9669,-2.209 -4.6339,-1.726 -5.1872,0.49 -2.5118,10.121 0.2841,21.583 2.1871,31.699 2.1869,11.621 5.0577,23.127 8.5874,34.44 0.7198,2.31 1.464,4.645 2.2297,6.99 -0.5149,0.968 -1.0313,1.925 -1.5408,2.859 -5.3165,9.738 -10.0969,19.771 -14.3423,30.017 -6.6426,16.027 -13.2403,33.63 -14.8959,51.311 -0.5305,0.09 -1.0333,0.259 -1.4795,0.521 -11.6152,-0.06 -21.5253,3.551 -29.9783,9.453 -0.3077,-0.638 -0.9888,-1.108 -1.7504,-0.868 -10.7569,3.379 -20.0005,13.7 -27.0184,21.936 -7.9597,9.34 -14.0134,18.642 -17.4845,30.424 -0.4419,1.502 1.5223,2.201 2.407,1.088 7.0793,-8.903 13.6083,-18.384 21.0447,-27.001 -4.7139,7.752 -8.5982,16.033 -11.8005,24.004 -0.8136,2.019 1.121,4.37 3.2086,4.382 4.1721,0.02 8.3149,-0.307 12.3767,-0.978 -0.5021,0.705 -1.0046,1.418 -1.5174,2.12 -1.6766,2.298 -3.2793,4.647 -4.827,7.031 -0.5982,-0.431 -1.4449,-0.564 -2.2221,-0.252 -8.8594,3.552 -14.2465,15.143 -18.4136,23.003 -4.9806,9.406 -7.7572,19.341 -10.5231,29.563 -0.3737,1.381 1.6513,2.419 2.404,1.087 5.0007,-8.831 9.9654,-17.615 14.7154,-26.581 0.3606,-0.682 0.734,-1.355 1.1049,-2.031 -2.1284,5.174 -4.0482,10.437 -5.8918,15.698 -0.9608,2.76 1.9129,5.696 4.7461,4.938 0.6585,-0.178 1.3171,-0.362 1.9753,-0.545 -3.5824,4.586 -6.497,9.957 -8.8291,14.829 -6.3641,5.048 -9.641,13.464 -12.6554,20.762"
         style="fill:#f5e6b3;fill-opacity:1;fill-rule:nonzero;stroke:#3e2318;stroke-width:0.024501;stroke-opacity:1"
         id="path60" />
      <path
         style="fill:#ffe4b5;stroke-width:3.08576"
         d="m 2051.7977,18924.184 14.524,-90.433"
         id="path1" />
      <text
         xml:space="preserve"
         style="font-size:394.018px;text-align:start;writing-mode:lr-tb;direction:ltr;text-anchor:start;fill:#000000;stroke-width:6.15653"
         x="3050.0745"
         y="-18766.418"
         id="text1"
         transform="scale(1,-1)"><tspan
           sodipodi:role="line"
           id="tspan1"
           style="font-style:normal;font-variant:normal;font-weight:normal;font-stretch:normal;font-size:394.018px;font-family:HudsonNY-Serif;-inkscape-font-specification:HudsonNY-Serif;stroke-width:6.15653"
           x="3050.0745"
           y="-18766.418" /></text>
    </g>
  </g>
</svg>
