<?xml version="1.0" encoding="UTF-8" standalone="no"?>
<!-- Uploaded to: SVG Repo, www.svgrepo.com, Generator: SVG Repo Mixer Tools -->

<svg
   width="600"
   height="600"
   viewBox="0 0 18 18"
   fill="none"
   version="1.1"
   id="svg9777"
   sodipodi:docname="social-fb-light.svg"
   inkscape:version="1.4.2 (f4327f4, 2025-05-13)"
   xmlns:inkscape="http://www.inkscape.org/namespaces/inkscape"
   xmlns:sodipodi="http://sodipodi.sourceforge.net/DTD/sodipodi-0.dtd"
   xmlns="http://www.w3.org/2000/svg"
   xmlns:svg="http://www.w3.org/2000/svg">
  <defs
     id="defs9781" />
  <sodipodi:namedview
     id="namedview9779"
     pagecolor="#ffffff"
     bordercolor="#000000"
     borderopacity="0.25"
     inkscape:showpageshadow="2"
     inkscape:pageopacity="0.0"
     inkscape:pagecheckerboard="0"
     inkscape:deskcolor="#d1d1d1"
     showgrid="false"
     inkscape:zoom="0.595"
     inkscape:cx="401.68067"
     inkscape:cy="399.15966"
     inkscape:window-width="1920"
     inkscape:window-height="1051"
     inkscape:window-x="-9"
     inkscape:window-y="-9"
     inkscape:window-maximized="1"
     inkscape:current-layer="svg9777" />
  <path
     d="M 17.766069,8.9564593 C 17.745603,7.28804 17.248744,5.660212 16.334041,4.2646933 15.419337,2.8691746 14.124985,1.764078 12.603326,1.0795609 11.081557,0.3950438 9.3959545,0.15961555 7.7449361,0.40098642 6.0939506,0.64236823 4.5462878,1.3504916 3.2842536,2.4419958 2.0222084,3.533489 1.0983451,4.9628904 0.62145845,6.561848 0.14458271,8.1608274 0.13453608,9.8627355 0.5925224,11.467242 c 0.4579863,1.604506 1.3649192,3.044632 2.6139956,4.150966 1.2490656,1.106333 2.7882686,1.832689 4.4363102,2.093486 V 11.506421 H 5.4540305 V 8.9564593 H 7.6428282 V 7.0193637 C 7.5921573,6.5689725 7.6409677,6.1129233 7.7858668,5.6834353 7.930766,5.2539473 8.1681423,4.8614939 8.4812513,4.5337745 8.7943604,4.2060442 9.1755414,3.951037 9.5979815,3.786756 10.020422,3.622464 10.473833,3.5528927 10.926042,3.582967 c 0.656423,0.00899 1.311315,0.067525 1.958983,0.1751047 v 2.1888086 h -1.094404 c -0.188675,-0.023803 -0.380415,-0.00489 -0.560773,0.055333 -0.180467,0.060225 -0.345065,0.1602208 -0.481648,0.2925999 -0.136581,0.1323792 -0.241644,0.29376 -0.307418,0.4721808 -0.06588,0.1784973 -0.09073,0.3694709 -0.07289,0.5588028 v 1.6525505 h 2.429578 l -0.393985,2.5499617 h -2.024649 v 6.128665 c 2.068315,-0.327118 3.95091,-1.38475 5.30622,-2.981048 1.35531,-1.596299 2.093595,-3.625434 2.08101,-5.7194668 z"
     fill="#000000"
     id="path9775"
     style="stroke-width:1.0944;fill:#5b3d28;fill-opacity:1" />
</svg>
