<?xml version="1.0" encoding="UTF-8" standalone="no"?>
<!-- Uploaded to: SVG Repo, www.svgrepo.com, Generator: SVG Repo Mixer Tools -->

<svg
   fill="#000000"
   width="600"
   height="600"
   viewBox="0 0 24 24"
   version="1.1"
   id="svg39"
   sodipodi:docname="social-ig-light.svg"
   inkscape:version="1.4.2 (f4327f4, 2025-05-13)"
   xmlns:inkscape="http://www.inkscape.org/namespaces/inkscape"
   xmlns:sodipodi="http://sodipodi.sourceforge.net/DTD/sodipodi-0.dtd"
   xmlns="http://www.w3.org/2000/svg"
   xmlns:svg="http://www.w3.org/2000/svg">
  <defs
     id="defs43" />
  <sodipodi:namedview
     id="namedview41"
     pagecolor="#ffffff"
     bordercolor="#000000"
     borderopacity="0.25"
     inkscape:showpageshadow="2"
     inkscape:pageopacity="0.0"
     inkscape:pagecheckerboard="0"
     inkscape:deskcolor="#d1d1d1"
     showgrid="false"
     inkscape:zoom="0.595"
     inkscape:cx="401.68067"
     inkscape:cy="399.15966"
     inkscape:window-width="1920"
     inkscape:window-height="1051"
     inkscape:window-x="-9"
     inkscape:window-y="-9"
     inkscape:window-maximized="1"
     inkscape:current-layer="svg39" />
  <path
     d="M 16.744835,0.24527311 H 7.2830515 A 6.9800741,6.9800741 0 0 0 0.30829832,7.2200262 V 16.68181 A 6.9800741,6.9800741 0 0 0 7.2830515,23.657627 H 16.744835 A 6.9811383,6.9811383 0 0 0 23.719588,16.68181 V 7.2200262 A 6.9779457,6.9779457 0 0 0 16.744835,0.24527311 Z M 21.365582,16.68181 a 4.6218115,4.6218115 0 0 1 -4.620747,4.620747 H 7.2830515 A 4.6196831,4.6196831 0 0 1 2.6633684,16.68181 V 7.2200262 A 4.618619,4.618619 0 0 1 7.2830515,2.6003431 h 9.4617835 a 4.6207473,4.6207473 0 0 1 4.619683,4.6196831 z"
     id="path35"
     style="stroke-width:1.0642;stroke-dasharray:none;fill:#5b3d28;fill-opacity:1" />
  <path
     d="m 12.014475,5.8982924 c -3.3394526,0 -6.0531573,2.7147689 -6.0531573,6.0531576 0,3.338389 2.7147689,6.053158 6.0531573,6.053158 3.338389,0 6.053158,-2.714769 6.053158,-6.053158 0,-3.3383887 -2.713705,-6.0531576 -6.053158,-6.0531576 z m 0,9.7512456 a 3.6980879,3.6980879 0 1 1 -0.0011,-7.3961756 3.6980879,3.6980879 0 0 1 0.0011,7.3961756 z M 18.080403,4.492487 a 1.4505018,1.4505018 0 1 1 -1.451566,1.4515659 c 0,-0.8002768 0.542741,-1.4515659 1.451566,-1.4515659 z"
     id="path37"
     style="stroke-width:1.0642;stroke-dasharray:none;fill:#5b3d28;fill-opacity:1" />
</svg>
